<svg width="40" height="40" viewBox="0 0 40 40" fill="none" xmlns="http://www.w3.org/2000/svg">
<path d="M33.3594 0H6.64062C2.97311 0 0 3.04934 0 6.8109V33.1891C0 36.9507 2.97311 40 6.64062 40H33.3594C37.0269 40 40 36.9507 40 33.1891V6.8109C40 3.04934 37.0269 0 33.3594 0Z" fill="#FFF6D8"/>
<path d="M13.0954 9.72747L20 9.00385L26.9046 9.72835L32.25 16.85L20 30.9961L7.75 16.85L13.0954 9.72747Z" fill="#FDB300"/>
<path d="M12.7121 16.8456L20 30.9961L7.75 16.8456H12.7121ZM27.2879 16.8456L20 30.9961L32.25 16.8456H27.2879Z" fill="#EA6C00"/>
<path d="M12.7121 16.8456H27.2879L20 30.9961L12.7121 16.8456Z" fill="#FDAD00"/>
<path d="M20 9.00385L13.0954 9.72747L12.7121 16.8456L20 9.00385ZM20 9.00385L26.9046 9.72747L27.2879 16.8456L20 9.00385Z" fill="#FDD231"/>
<path d="M32.25 16.8456L26.9046 9.72748L27.2879 16.8456H32.25ZM7.75 16.8456L13.0954 9.72748L12.7121 16.8456H7.75Z" fill="#FDAD00"/>
<path d="M20 9.00385L12.7121 16.8456H27.2879L20 9.00385Z" fill="#FEEEB7"/>
</svg>
