<svg width="19" height="29" viewBox="0 0 19 29" fill="none" xmlns="http://www.w3.org/2000/svg">
<path d="M4.5 28.2991C6.984 28.2991 9 26.2831 9 23.7991V19.2991H4.5C2.016 19.2991 0 21.3151 0 23.7991C0 26.2831 2.016 28.2991 4.5 28.2991Z" fill="#0ACF83"/>
<path d="M0 14.2264C0 11.7424 2.016 9.72644 4.5 9.72644H9V18.7264H4.5C2.016 18.7264 0 16.7104 0 14.2264Z" fill="#A259FF"/>
<path d="M0 4.65381C0 2.16981 2.016 0.153809 4.5 0.153809H9V9.15381H4.5C2.016 9.15381 0 7.13781 0 4.65381Z" fill="#F24E1E"/>
<path d="M9.33398 0.153809H13.834C16.318 0.153809 18.334 2.16981 18.334 4.65381C18.334 7.13781 16.318 9.15381 13.834 9.15381H9.33398V0.153809Z" fill="#FF7262"/>
<path d="M18.334 14.2264C18.334 16.7104 16.318 18.7264 13.834 18.7264C11.35 18.7264 9.33398 16.7104 9.33398 14.2264C9.33398 11.7424 11.35 9.72644 13.834 9.72644C16.318 9.72644 18.334 11.7424 18.334 14.2264Z" fill="#1ABCFE"/>
</svg>
