<svg width="32" height="32" viewBox="0 0 32 32" fill="none" xmlns="http://www.w3.org/2000/svg">
<path d="M29.3333 15.9998C29.3356 17.7561 28.9898 19.4953 28.3159 21.1171C27.6421 22.7389 26.6535 24.211 25.4073 25.4485C24.1714 26.6823 22.7044 27.6604 21.0902 28.327C19.4761 28.9935 17.7464 29.3354 16 29.3332C8.636 29.3332 2.66667 23.3638 2.66667 15.9998C2.66201 12.581 3.97525 9.29195 6.33334 6.81652C7.57756 5.50358 9.07661 4.45834 10.7388 3.74477C12.4009 3.0312 14.1912 2.66429 16 2.66652C17.7464 2.66425 19.4761 3.00617 21.0902 3.67272C22.7044 4.33928 24.1714 5.3174 25.4073 6.55118C26.6535 7.78867 27.6421 9.26083 28.3159 10.8826C28.9898 12.5044 29.3356 14.2436 29.3333 15.9998Z" stroke="#808080" stroke-width="2" stroke-linecap="round" stroke-linejoin="round"/>
<path d="M29.3333 15.9999C27.388 15.9999 22.0213 15.2665 17.218 17.3752C12 19.6665 8.222 23.2205 6.57533 25.4312" stroke="#808080" stroke-width="2" stroke-linecap="round" stroke-linejoin="round"/>
<path d="M11 3.63574C13.0867 5.56174 17.64 10.4651 19.3333 15.3331C21.0267 20.2011 21.6533 26.1864 22.04 27.8897" stroke="#808080" stroke-width="2" stroke-linecap="round" stroke-linejoin="round"/>
<path d="M2.76933 14.333C5.288 14.485 11.9553 14.6217 16.222 12.7997C20.4887 10.9777 24.16 7.62632 25.4193 6.56299M3.66667 21.075C4.84154 23.9189 6.96047 26.2712 9.66667 27.7357" stroke="#808080" stroke-width="2" stroke-linecap="round" stroke-linejoin="round"/>
<path d="M2.66667 15.9998C2.66201 12.581 3.97525 9.29195 6.33334 6.81651C7.57756 5.50358 9.07661 4.45834 10.7388 3.74477C12.4009 3.03119 14.1912 2.66429 16 2.66651M21.3333 3.77585C22.8517 4.44021 24.2333 5.38134 25.4073 6.55118C26.6535 7.78866 27.6421 9.26083 28.3159 10.8826C28.9898 12.5044 29.3356 14.2436 29.3333 15.9998C29.3333 17.6412 29.0367 19.2138 28.4933 20.6665M16 29.3332C17.7464 29.3354 19.4761 28.9935 21.0902 28.327C22.7044 27.6604 24.1714 26.6823 25.4073 25.4485" stroke="#808080" stroke-width="2" stroke-linecap="round" stroke-linejoin="round"/>
</svg>
