<svg width="22" height="27" viewBox="0 0 22 27" fill="none" xmlns="http://www.w3.org/2000/svg">
<path d="M11 13.75C11.7563 13.75 12.4039 13.4805 12.9429 12.9415C13.481 12.4034 13.75 11.7562 13.75 11C13.75 10.2437 13.481 9.59612 12.9429 9.05712C12.4039 8.51904 11.7563 8.25 11 8.25C10.2437 8.25 9.59658 8.51904 9.0585 9.05712C8.5195 9.59612 8.25 10.2437 8.25 11C8.25 11.7562 8.5195 12.4034 9.0585 12.9415C9.59658 13.4805 10.2437 13.75 11 13.75ZM11 26.9844C10.8167 26.9844 10.6333 26.95 10.45 26.8812C10.2667 26.8125 10.1062 26.7208 9.96875 26.6062C6.62292 23.65 4.125 20.906 2.475 18.3741C0.825 15.8414 0 13.475 0 11.275C0 7.8375 1.10596 5.09896 3.31788 3.05937C5.52888 1.01979 8.08958 0 11 0C13.9104 0 16.4711 1.01979 18.6821 3.05937C20.894 5.09896 22 7.8375 22 11.275C22 13.475 21.175 15.8414 19.525 18.3741C17.875 20.906 15.3771 23.65 12.0312 26.6062C11.8938 26.7208 11.7333 26.8125 11.55 26.8812C11.3667 26.95 11.1833 26.9844 11 26.9844Z" fill="#FF4A5F"/>
</svg>
