<svg width="40" height="40" viewBox="0 0 40 40" fill="none" xmlns="http://www.w3.org/2000/svg">
<path d="M33.3594 0H6.64062C2.97311 0 0 2.97311 0 6.64062V32.3594C0 36.0269 2.97311 39 6.64062 39H33.3594C37.0269 39 40 36.0269 40 32.3594V6.64062C40 2.97311 37.0269 0 33.3594 0Z" fill="#470137"/>
<path d="M21.0278 10.2562L16.0367 18.4942L21.3766 27.2419C21.4109 27.3031 21.4205 27.375 21.4034 27.4431C21.3952 27.4722 21.3773 27.4794 21.35 27.4804L21.3197 27.48L21.2828 27.479C21.2628 27.479 21.2405 27.48 21.2156 27.484H17.3656L17.29 27.4828C17.0825 27.4773 16.933 27.4476 16.8419 27.2954C16.4856 26.6015 16.1278 25.9083 15.7684 25.2159C15.447 24.5984 15.1167 23.9855 14.7778 23.3773L14.6281 23.1095C14.2228 22.3891 13.8247 21.6646 13.4341 20.9361H13.4072C13.0464 21.6569 12.6752 22.3725 12.2936 23.0826C11.9088 23.7983 11.5286 24.5095 11.1531 25.2159C10.7774 25.9229 10.3928 26.6251 9.99938 27.3223C9.9361 27.4645 9.83094 27.4942 9.68454 27.499L9.6236 27.5H5.9475L5.93157 27.5004L5.87907 27.5051C5.84985 27.5069 5.83235 27.5006 5.82672 27.4565C5.81664 27.3911 5.83099 27.3243 5.86704 27.2687L11.0458 18.7625L6.0011 10.2297C5.94751 10.1584 5.9386 10.1003 5.97422 10.0553C5.99403 10.0324 6.01889 10.0144 6.04685 10.0027C6.07481 9.99104 6.10509 9.98604 6.13532 9.9881H9.91876C10.0013 9.98358 10.0837 9.99735 10.1603 10.0284C10.2244 10.0648 10.2795 10.1153 10.3213 10.1761C10.6433 10.8917 11.0011 11.6073 11.3947 12.3226C11.7852 13.0334 12.1833 13.7401 12.5888 14.4425C12.988 15.134 13.3595 15.8412 13.7023 16.5623H13.7292C14.0806 15.8413 14.4429 15.1257 14.8159 14.4158C15.1823 13.7181 15.5581 13.0158 15.9428 12.3092C16.3226 11.6117 16.6938 10.9096 17.0564 10.2029C17.077 10.1367 17.1139 10.0767 17.1638 10.0284C17.23 9.99486 17.3045 9.98087 17.3784 9.9881H20.8936C20.9259 9.98004 20.96 9.9827 20.9907 9.99567C21.0213 10.0086 21.047 10.0312 21.0637 10.06C21.0804 10.0888 21.0874 10.1223 21.0835 10.1553C21.0796 10.1884 21.065 10.2193 21.042 10.2434L21.028 10.2565L21.0278 10.2562ZM28.9138 27.8301L28.7288 27.8322C27.4937 27.851 26.2699 27.5943 25.1464 27.0809C24.0998 26.5965 23.2249 25.8058 22.6375 24.8134C22.0452 23.8297 21.7411 22.6037 21.7258 21.1361L21.7252 21.0165C21.7151 19.785 22.0299 18.5725 22.6377 17.5014C23.246 16.4412 24.1328 15.5677 25.202 14.9754L25.2941 14.9254C26.4566 14.2814 27.8609 13.9594 29.5069 13.9594L29.5788 13.9601L29.6609 13.9628L29.7531 13.9669L29.8556 13.9728L30.0278 13.985L30.2228 14.0006L30.3655 14.0131V8.72685C30.3655 8.60185 30.4192 8.53904 30.5264 8.53904H33.9075C33.9294 8.5359 33.9517 8.5379 33.9726 8.54488C33.9936 8.55186 34.0126 8.56362 34.0282 8.57924C34.0439 8.59486 34.0556 8.6139 34.0626 8.63486C34.0696 8.65582 34.0716 8.67811 34.0684 8.69998V24.5586C34.0684 24.8248 34.0788 25.1117 34.0994 25.4186L34.1494 26.1147L34.1759 26.5173C34.1792 26.5731 34.1656 26.6285 34.1369 26.6764C34.1081 26.7243 34.0656 26.7624 34.0148 26.7858C33.1426 27.1495 32.2341 27.4193 31.3047 27.5906C30.5157 27.7362 29.716 27.8163 28.9138 27.8301ZM30.3655 24.5048V17.1793C30.2205 17.1401 30.0724 17.1132 29.9228 17.0989C29.74 17.0805 29.5564 17.0715 29.3727 17.072C28.7215 17.0656 28.078 17.2127 27.4944 17.5014C26.9259 17.784 26.4405 18.2093 26.0856 18.7358C25.7314 19.2539 25.5481 19.9304 25.5361 20.7654L25.5355 20.8556C25.5224 21.4405 25.6179 22.0227 25.8172 22.5728C25.9794 23.0161 26.2358 23.4189 26.5688 23.7536C26.8874 24.0614 27.2731 24.291 27.6956 24.4244C28.1419 24.5689 28.6084 24.6414 29.0775 24.6392C29.3278 24.6392 29.5603 24.6301 29.7752 24.6122C29.9465 24.5993 30.1164 24.571 30.2827 24.5278L30.3655 24.5048Z" fill="#FF61F6"/>
</svg>
