<svg width="27" height="27" viewBox="0 0 27 27" fill="none" xmlns="http://www.w3.org/2000/svg">
<g clip-path="url(#clip0_1_535)">
<path d="M13.5 0C20.9562 0 27 6.02615 27 13.4606C27 20.6666 21.3211 26.5504 14.1818 26.9044H12.8183C5.67939 26.5504 0 20.6667 0 13.4606C0 6.02615 6.04441 0 13.5 0Z" fill="#FF4A5F"/>
<path d="M12.9583 5.5686C15.9898 5.36615 18.6857 6.86029 20.186 9.19542C20.4233 9.60284 20.3081 10.1208 19.9138 10.3934C19.4982 10.6808 18.9515 10.5541 18.639 10.1155C17.5551 8.59438 15.663 7.3361 13.5059 7.3361C9.36721 7.3361 6.19133 11.4761 7.85932 15.8122C8.59412 17.7225 10.3357 19.09 12.3632 19.4075C14.8536 19.7971 17.1314 18.914 18.4433 16.995L17.6235 17.1097H16.2089C15.7598 17.1097 15.3442 16.8076 15.2643 16.3671C15.1593 15.7889 15.6024 15.285 16.1635 15.285H21.1305V20.4796C21.1305 20.6138 21.1009 20.7463 21.0437 20.8677C20.9864 20.9891 20.903 21.0965 20.7994 21.1822C20.6958 21.2678 20.5745 21.3297 20.4441 21.3633C20.3137 21.3969 20.1775 21.4015 20.0452 21.3767C19.6033 21.2971 19.3009 20.8823 19.3009 20.435V19.5676L19.4728 18.608C18.0202 20.2811 15.8876 21.3154 13.5059 21.3154C8.9717 21.3154 5.32586 17.5738 5.58974 12.9913C5.8166 9.05317 9.01115 5.83271 12.9583 5.5686Z" fill="white"/>
</g>
<defs>
<clipPath id="clip0_1_535">
<rect width="27" height="27" fill="white"/>
</clipPath>
</defs>
</svg>
