<svg width="32" height="32" viewBox="0 0 32 32" fill="none" xmlns="http://www.w3.org/2000/svg">
<path d="M16 10C14.8133 10 13.6533 10.3519 12.6666 11.0112C11.6799 11.6705 10.9108 12.6075 10.4567 13.7039C10.0026 14.8003 9.88378 16.0067 10.1153 17.1705C10.3468 18.3344 10.9182 19.4035 11.7574 20.2426C12.5965 21.0818 13.6656 21.6532 14.8295 21.8847C15.9933 22.1162 17.1997 21.9974 18.2961 21.5433C19.3925 21.0892 20.3295 20.3201 20.9888 19.3334C21.6481 18.3467 22 17.1867 22 16C22 14.4087 21.3679 12.8826 20.2426 11.7574C19.1174 10.6321 17.5913 10 16 10ZM16 20C15.2089 20 14.4355 19.7654 13.7777 19.3259C13.1199 18.8864 12.6072 18.2616 12.3045 17.5307C12.0017 16.7998 11.9225 15.9956 12.0769 15.2196C12.2312 14.4437 12.6122 13.731 13.1716 13.1716C13.731 12.6122 14.4437 12.2312 15.2196 12.0769C15.9956 11.9225 16.7998 12.0017 17.5307 12.3045C18.2616 12.6072 18.8864 13.1199 19.3259 13.7777C19.7654 14.4355 20 15.2089 20 16C19.9967 17.0599 19.5742 18.0754 18.8248 18.8248C18.0754 19.5742 17.0599 19.9967 16 20ZM21.5 3.5H10.5C8.64348 3.5 6.86301 4.2375 5.55025 5.55025C4.2375 6.86301 3.5 8.64348 3.5 10.5V21.5C3.5 23.3565 4.2375 25.137 5.55025 26.4497C6.86301 27.7625 8.64348 28.5 10.5 28.5H21.5C23.3565 28.5 25.137 27.7625 26.4497 26.4497C27.7625 25.137 28.5 23.3565 28.5 21.5V10.5C28.5 8.64348 27.7625 6.86301 26.4497 5.55025C25.137 4.2375 23.3565 3.5 21.5 3.5ZM26.5 21.5C26.5 22.1566 26.3707 22.8068 26.1194 23.4134C25.8681 24.02 25.4998 24.5712 25.0355 25.0355C24.5712 25.4998 24.02 25.8681 23.4134 26.1194C22.8068 26.3707 22.1566 26.5 21.5 26.5H10.5C9.84339 26.5 9.19321 26.3707 8.58658 26.1194C7.97996 25.8681 7.42876 25.4998 6.96447 25.0355C6.50017 24.5712 6.13188 24.02 5.8806 23.4134C5.62933 22.8068 5.5 22.1566 5.5 21.5V10.5C5.5 9.17392 6.02678 7.90215 6.96447 6.96447C7.90215 6.02678 9.17392 5.5 10.5 5.5H21.5C22.1566 5.5 22.8068 5.62933 23.4134 5.8806C24.02 6.13188 24.5712 6.50017 25.0355 6.96447C25.4998 7.42876 25.8681 7.97996 26.1194 8.58658C26.3707 9.19321 26.5 9.84339 26.5 10.5V21.5ZM24 9.5C24 9.79667 23.912 10.0867 23.7472 10.3334C23.5824 10.58 23.3481 10.7723 23.074 10.8858C22.7999 10.9994 22.4983 11.0291 22.2074 10.9712C21.9164 10.9133 21.6491 10.7704 21.4393 10.5607C21.2296 10.3509 21.0867 10.0836 21.0288 9.79264C20.9709 9.50166 21.0007 9.20006 21.1142 8.92597C21.2277 8.65189 21.42 8.41762 21.6666 8.2528C21.9133 8.08797 22.2033 8 22.5 8C22.8978 8 23.2794 8.15804 23.5607 8.43934C23.842 8.72064 24 9.10218 24 9.5Z" fill="#808080"/>
</svg>
