<svg width="32" height="32" viewBox="0 0 32 32" fill="none" xmlns="http://www.w3.org/2000/svg">
<path d="M17.3333 11.9998H23.3333L22.6667 14.6665H17.3333V26.6665H14.6667V14.6665H9.33334V11.9998H14.6667V9.50384C14.6667 7.1265 14.9147 6.26384 15.3787 5.3945C15.8333 4.53558 16.5357 3.83318 17.3947 3.3785C18.264 2.9145 19.1267 2.6665 21.504 2.6665C22.2 2.6665 22.8107 2.73317 23.3333 2.8665V5.33317H21.504C19.7387 5.33317 19.2013 5.43717 18.6533 5.7305C18.248 5.9465 17.9467 6.24784 17.7307 6.65317C17.4373 7.20117 17.3333 7.7385 17.3333 9.50384V11.9998Z" fill="#808080"/>
</svg>
