<svg width="32" height="32" viewBox="0 0 32 32" fill="none" xmlns="http://www.w3.org/2000/svg">
<path d="M16 12.7332C17.2227 11.4838 18.8147 10.6665 20.6667 10.6665C22.6116 10.6665 24.4769 11.4391 25.8521 12.8144C27.2274 14.1897 28 16.0549 28 17.9998V27.9998H25.3333V17.9998C25.3333 16.7622 24.8417 15.5752 23.9665 14.7C23.0913 13.8248 21.9043 13.3332 20.6667 13.3332C19.429 13.3332 18.242 13.8248 17.3668 14.7C16.4917 15.5752 16 16.7622 16 17.9998V27.9998H13.3333V11.3332H16V12.7332ZM6.66667 8.6665C6.13623 8.6665 5.62753 8.45579 5.25245 8.08072C4.87738 7.70564 4.66667 7.19694 4.66667 6.6665C4.66667 6.13607 4.87738 5.62736 5.25245 5.25229C5.62753 4.87722 6.13623 4.6665 6.66667 4.6665C7.1971 4.6665 7.70581 4.87722 8.08088 5.25229C8.45595 5.62736 8.66667 6.13607 8.66667 6.6665C8.66667 7.19694 8.45595 7.70564 8.08088 8.08072C7.70581 8.45579 7.1971 8.6665 6.66667 8.6665ZM5.33333 11.3332H8V27.9998H5.33333V11.3332Z" fill="#808080"/>
</svg>
