<svg width="188" height="50" viewBox="0 0 188 50" fill="none" xmlns="http://www.w3.org/2000/svg">
<rect x="0.5" y="0.5" width="187" height="49" rx="24.5" stroke="#757575"/>
<path d="M22.9432 22.6477H21.1705C21.1023 22.2689 20.9754 21.9356 20.7898 21.6477C20.6042 21.3598 20.3769 21.1155 20.108 20.9148C19.839 20.714 19.5379 20.5625 19.2045 20.4602C18.875 20.358 18.5246 20.3068 18.1534 20.3068C17.483 20.3068 16.8826 20.4754 16.3523 20.8125C15.8258 21.1496 15.4091 21.6439 15.1023 22.2955C14.7992 22.947 14.6477 23.7424 14.6477 24.6818C14.6477 25.6288 14.7992 26.428 15.1023 27.0795C15.4091 27.7311 15.8277 28.2235 16.358 28.5568C16.8883 28.8902 17.4848 29.0568 18.1477 29.0568C18.5152 29.0568 18.8636 29.0076 19.1932 28.9091C19.5265 28.8068 19.8277 28.6572 20.0966 28.4602C20.3655 28.2633 20.5928 28.0227 20.7784 27.7386C20.9678 27.4508 21.0985 27.1212 21.1705 26.75L22.9432 26.7557C22.8485 27.3277 22.6648 27.8542 22.392 28.3352C22.1231 28.8125 21.7765 29.2254 21.3523 29.5739C20.9318 29.9186 20.4508 30.1856 19.9091 30.375C19.3674 30.5644 18.7765 30.6591 18.1364 30.6591C17.1288 30.6591 16.2311 30.4205 15.4432 29.9432C14.6553 29.4621 14.0341 28.7746 13.5795 27.8807C13.1288 26.9867 12.9034 25.9205 12.9034 24.6818C12.9034 23.4394 13.1307 22.3731 13.5852 21.483C14.0398 20.589 14.661 19.9034 15.4489 19.4261C16.2367 18.9451 17.1326 18.7045 18.1364 18.7045C18.7538 18.7045 19.3295 18.7936 19.8636 18.9716C20.4015 19.1458 20.8845 19.4034 21.3125 19.7443C21.7405 20.0814 22.0947 20.4943 22.375 20.983C22.6553 21.4678 22.8447 22.0227 22.9432 22.6477ZM36.752 24.6818C36.752 25.9242 36.5247 26.9924 36.0702 27.8864C35.6156 28.7765 34.9925 29.4621 34.2009 29.9432C33.413 30.4205 32.5171 30.6591 31.5134 30.6591C30.5058 30.6591 29.6062 30.4205 28.8145 29.9432C28.0266 29.4621 27.4054 28.7746 26.9509 27.8807C26.4963 26.9867 26.269 25.9205 26.269 24.6818C26.269 23.4394 26.4963 22.3731 26.9509 21.483C27.4054 20.589 28.0266 19.9034 28.8145 19.4261C29.6062 18.9451 30.5058 18.7045 31.5134 18.7045C32.5171 18.7045 33.413 18.9451 34.2009 19.4261C34.9925 19.9034 35.6156 20.589 36.0702 21.483C36.5247 22.3731 36.752 23.4394 36.752 24.6818ZM35.0134 24.6818C35.0134 23.7348 34.8599 22.9375 34.5531 22.2898C34.2501 21.6383 33.8334 21.1458 33.3031 20.8125C32.7766 20.4754 32.18 20.3068 31.5134 20.3068C30.8429 20.3068 30.2444 20.4754 29.7179 20.8125C29.1914 21.1458 28.7747 21.6383 28.4679 22.2898C28.1649 22.9375 28.0134 23.7348 28.0134 24.6818C28.0134 25.6288 28.1649 26.428 28.4679 27.0795C28.7747 27.7273 29.1914 28.2197 29.7179 28.5568C30.2444 28.8902 30.8429 29.0568 31.5134 29.0568C32.18 29.0568 32.7766 28.8902 33.3031 28.5568C33.8334 28.2197 34.2501 27.7273 34.5531 27.0795C34.8599 26.428 35.0134 25.6288 35.0134 24.6818ZM40.5409 18.8636H42.6716L46.3761 27.9091H46.5125L50.217 18.8636H52.3477V30.5H50.6773V22.0795H50.5693L47.1375 30.483H45.7511L42.3193 22.0739H42.2114V30.5H40.5409V18.8636ZM56.5003 30.5V18.8636H63.7957V20.375H58.256V23.9205H63.4151V25.4261H58.256V28.9886H63.8639V30.5H56.5003ZM79.9219 21.9205C79.8613 21.3826 79.6113 20.9659 79.1719 20.6705C78.7325 20.3712 78.1795 20.2216 77.5128 20.2216C77.0355 20.2216 76.6226 20.2973 76.2741 20.4489C75.9257 20.5966 75.6548 20.8011 75.4616 21.0625C75.2723 21.3201 75.1776 21.6136 75.1776 21.9432C75.1776 22.2197 75.242 22.4583 75.3707 22.6591C75.5033 22.8598 75.6757 23.0284 75.8878 23.1648C76.1037 23.2973 76.3348 23.4091 76.581 23.5C76.8272 23.5871 77.0639 23.6591 77.2912 23.7159L78.4276 24.0114C78.7988 24.1023 79.1795 24.2254 79.5696 24.3807C79.9598 24.536 80.3215 24.7405 80.6548 24.9943C80.9882 25.2481 81.2571 25.5625 81.4616 25.9375C81.67 26.3125 81.7741 26.7614 81.7741 27.2841C81.7741 27.9432 81.6037 28.5284 81.2628 29.0398C80.9257 29.5511 80.4351 29.9545 79.7912 30.25C79.151 30.5455 78.3764 30.6932 77.4673 30.6932C76.5961 30.6932 75.8423 30.5549 75.206 30.2784C74.5696 30.0019 74.0715 29.6098 73.7116 29.1023C73.3518 28.5909 73.1529 27.9848 73.1151 27.2841H74.8764C74.9105 27.7045 75.0469 28.0549 75.2855 28.3352C75.5279 28.6117 75.8366 28.8182 76.2116 28.9545C76.5904 29.0871 77.0052 29.1534 77.456 29.1534C77.9522 29.1534 78.3935 29.0758 78.7798 28.9205C79.17 28.7614 79.4768 28.5417 79.7003 28.2614C79.9238 27.9773 80.0355 27.6458 80.0355 27.267C80.0355 26.9223 79.937 26.6402 79.7401 26.4205C79.5469 26.2008 79.2836 26.0189 78.9503 25.875C78.6207 25.7311 78.2476 25.6042 77.831 25.4943L76.456 25.1193C75.5241 24.8655 74.7855 24.4924 74.2401 24C73.6984 23.5076 73.4276 22.8561 73.4276 22.0455C73.4276 21.375 73.6094 20.7898 73.973 20.2898C74.3366 19.7898 74.8291 19.4015 75.4503 19.125C76.0715 18.8447 76.7723 18.7045 77.5526 18.7045C78.3404 18.7045 79.0355 18.8428 79.6378 19.1193C80.2438 19.3958 80.7211 19.7765 81.0696 20.2614C81.4181 20.7424 81.5999 21.2955 81.6151 21.9205H79.9219ZM86.3614 30.5H84.4977L88.6852 18.8636H90.7136L94.9011 30.5H93.0375L89.7477 20.9773H89.6568L86.3614 30.5ZM86.6739 25.9432H92.7193V27.4205H86.6739V25.9432ZM96.0963 18.8636H98.0906L101.13 24.1534H101.255L104.295 18.8636H106.289L102.068 25.9318V30.5H100.318V25.9318L96.0963 18.8636ZM115.382 30.5V18.8636H117.137V23.9205H122.938V18.8636H124.7V30.5H122.938V25.4261H117.137V30.5H115.382ZM130.612 18.8636V30.5H128.857V18.8636H130.612Z" fill="#323232"/>
<rect x="138" width="50" height="50" rx="25" fill="#F64C71"/>
<path d="M159 16L168 25L159 34" stroke="white" stroke-width="2" stroke-linecap="round"/>
</svg>
