<svg width="209" height="50" viewBox="0 0 209 50" fill="none" xmlns="http://www.w3.org/2000/svg">
<rect x="0.5" y="0.5" width="208" height="49" rx="24.5" stroke="#252525"/>
<path d="M19.625 21.9205C19.5644 21.3826 19.3144 20.9659 18.875 20.6705C18.4356 20.3712 17.8826 20.2216 17.2159 20.2216C16.7386 20.2216 16.3258 20.2973 15.9773 20.4489C15.6288 20.5966 15.358 20.8011 15.1648 21.0625C14.9754 21.3201 14.8807 21.6136 14.8807 21.9432C14.8807 22.2197 14.9451 22.4583 15.0739 22.6591C15.2064 22.8598 15.3788 23.0284 15.5909 23.1648C15.8068 23.2973 16.0379 23.4091 16.2841 23.5C16.5303 23.5871 16.767 23.6591 16.9943 23.7159L18.1307 24.0114C18.5019 24.1023 18.8826 24.2254 19.2727 24.3807C19.6629 24.536 20.0246 24.7405 20.358 24.9943C20.6913 25.2481 20.9602 25.5625 21.1648 25.9375C21.3731 26.3125 21.4773 26.7614 21.4773 27.2841C21.4773 27.9432 21.3068 28.5284 20.9659 29.0398C20.6288 29.5511 20.1383 29.9545 19.4943 30.25C18.8542 30.5455 18.0795 30.6932 17.1705 30.6932C16.2992 30.6932 15.5455 30.5549 14.9091 30.2784C14.2727 30.0019 13.7746 29.6098 13.4148 29.1023C13.0549 28.5909 12.8561 27.9848 12.8182 27.2841H14.5795C14.6136 27.7045 14.75 28.0549 14.9886 28.3352C15.2311 28.6117 15.5398 28.8182 15.9148 28.9545C16.2936 29.0871 16.7083 29.1534 17.1591 29.1534C17.6553 29.1534 18.0966 29.0758 18.483 28.9205C18.8731 28.7614 19.1799 28.5417 19.4034 28.2614C19.6269 27.9773 19.7386 27.6458 19.7386 27.267C19.7386 26.9223 19.6402 26.6402 19.4432 26.4205C19.25 26.2008 18.9867 26.0189 18.6534 25.875C18.3239 25.7311 17.9508 25.6042 17.5341 25.4943L16.1591 25.1193C15.2273 24.8655 14.4886 24.4924 13.9432 24C13.4015 23.5076 13.1307 22.8561 13.1307 22.0455C13.1307 21.375 13.3125 20.7898 13.6761 20.2898C14.0398 19.7898 14.5322 19.4015 15.1534 19.125C15.7746 18.8447 16.4754 18.7045 17.2557 18.7045C18.0436 18.7045 18.7386 18.8428 19.3409 19.1193C19.947 19.3958 20.4242 19.7765 20.7727 20.2614C21.1212 20.7424 21.303 21.2955 21.3182 21.9205H19.625ZM25.1753 30.5V18.8636H32.4707V20.375H26.931V23.9205H32.0901V25.4261H26.931V28.9886H32.5389V30.5H25.1753ZM45.808 18.8636V30.5H44.1943L38.2795 21.9659H38.1716V30.5H36.4159V18.8636H38.0409L43.9614 27.4091H44.0693V18.8636H45.808ZM53.7361 30.5H49.969V18.8636H53.8554C54.9955 18.8636 55.9747 19.0966 56.7929 19.5625C57.6111 20.0246 58.238 20.6894 58.6736 21.5568C59.113 22.4205 59.3327 23.4564 59.3327 24.6648C59.3327 25.8769 59.1111 26.9186 58.6679 27.7898C58.2285 28.661 57.5921 29.3314 56.7588 29.8011C55.9255 30.267 54.9179 30.5 53.7361 30.5ZM51.7247 28.9659H53.6395C54.5259 28.9659 55.2626 28.7992 55.8497 28.4659C56.4368 28.1288 56.8762 27.642 57.1679 27.0057C57.4596 26.3655 57.6054 25.5852 57.6054 24.6648C57.6054 23.7519 57.4596 22.9773 57.1679 22.3409C56.88 21.7045 56.4501 21.2216 55.8781 20.892C55.3062 20.5625 54.5959 20.3977 53.7474 20.3977H51.7247V28.9659ZM68.9503 30.5V18.8636H73.098C73.9995 18.8636 74.7476 19.0189 75.3423 19.3295C75.9408 19.6402 76.3878 20.0701 76.6832 20.6193C76.9787 21.1648 77.1264 21.7955 77.1264 22.5114C77.1264 23.2235 76.9768 23.8504 76.6776 24.392C76.3821 24.9299 75.9351 25.3485 75.3366 25.6477C74.742 25.947 73.9938 26.0966 73.0923 26.0966H69.9503V24.5852H72.9332C73.5014 24.5852 73.9635 24.5038 74.3196 24.3409C74.6795 24.178 74.9427 23.9413 75.1094 23.6307C75.276 23.3201 75.3594 22.947 75.3594 22.5114C75.3594 22.072 75.2741 21.6913 75.1037 21.3693C74.937 21.0473 74.6738 20.8011 74.3139 20.6307C73.9579 20.4564 73.4901 20.3693 72.9105 20.3693H70.706V30.5H68.9503ZM74.6946 25.25L77.5696 30.5H75.5696L72.7514 25.25H74.6946ZM80.8628 30.5V18.8636H88.1582V20.375H82.6185V23.9205H87.7776V25.4261H82.6185V28.9886H88.2264V30.5H80.8628ZM96.3818 26.7273H98.1091L99.325 28.3125L99.8989 29.017L101.836 31.5455H100.041L98.7455 29.858L98.3023 29.2443L96.3818 26.7273ZM102.211 24.6818C102.211 25.9242 101.984 26.9924 101.53 27.8864C101.075 28.7765 100.452 29.4621 99.6602 29.9432C98.8723 30.4205 97.9765 30.6591 96.9727 30.6591C95.9651 30.6591 95.0655 30.4205 94.2739 29.9432C93.486 29.4621 92.8648 28.7746 92.4102 27.8807C91.9557 26.9867 91.7284 25.9205 91.7284 24.6818C91.7284 23.4394 91.9557 22.3731 92.4102 21.483C92.8648 20.589 93.486 19.9034 94.2739 19.4261C95.0655 18.9451 95.9651 18.7045 96.9727 18.7045C97.9765 18.7045 98.8723 18.9451 99.6602 19.4261C100.452 19.9034 101.075 20.589 101.53 21.483C101.984 22.3731 102.211 23.4394 102.211 24.6818ZM100.473 24.6818C100.473 23.7348 100.319 22.9375 100.012 22.2898C99.7095 21.6383 99.2928 21.1458 98.7625 20.8125C98.236 20.4754 97.6394 20.3068 96.9727 20.3068C96.3023 20.3068 95.7038 20.4754 95.1773 20.8125C94.6508 21.1458 94.2341 21.6383 93.9273 22.2898C93.6242 22.9375 93.4727 23.7348 93.4727 24.6818C93.4727 25.6288 93.6242 26.428 93.9273 27.0795C94.2341 27.7273 94.6508 28.2197 95.1773 28.5568C95.7038 28.8902 96.3023 29.0568 96.9727 29.0568C97.6394 29.0568 98.236 28.8902 98.7625 28.5568C99.2928 28.2197 99.7095 27.7273 100.012 27.0795C100.319 26.428 100.473 25.6288 100.473 24.6818ZM113.483 18.8636H115.245V26.517C115.245 27.3314 115.053 28.053 114.671 28.6818C114.288 29.3068 113.75 29.7992 113.057 30.1591C112.364 30.5152 111.551 30.6932 110.62 30.6932C109.692 30.6932 108.881 30.5152 108.188 30.1591C107.495 29.7992 106.957 29.3068 106.574 28.6818C106.192 28.053 106 27.3314 106 26.517V18.8636H107.756V26.375C107.756 26.9015 107.871 27.3693 108.103 27.7784C108.337 28.1875 108.669 28.5095 109.097 28.7443C109.525 28.9754 110.032 29.0909 110.62 29.0909C111.211 29.0909 111.72 28.9754 112.148 28.7443C112.58 28.5095 112.909 28.1875 113.137 27.7784C113.368 27.3693 113.483 26.9015 113.483 26.375V18.8636ZM119.397 30.5V18.8636H126.693V20.375H121.153V23.9205H126.312V25.4261H121.153V28.9886H126.761V30.5H119.397ZM136.984 21.9205C136.924 21.3826 136.674 20.9659 136.234 20.6705C135.795 20.3712 135.242 20.2216 134.575 20.2216C134.098 20.2216 133.685 20.2973 133.337 20.4489C132.988 20.5966 132.717 20.8011 132.524 21.0625C132.335 21.3201 132.24 21.6136 132.24 21.9432C132.24 22.2197 132.304 22.4583 132.433 22.6591C132.566 22.8598 132.738 23.0284 132.95 23.1648C133.166 23.2973 133.397 23.4091 133.643 23.5C133.89 23.5871 134.126 23.6591 134.354 23.7159L135.49 24.0114C135.861 24.1023 136.242 24.2254 136.632 24.3807C137.022 24.536 137.384 24.7405 137.717 24.9943C138.051 25.2481 138.32 25.5625 138.524 25.9375C138.732 26.3125 138.837 26.7614 138.837 27.2841C138.837 27.9432 138.666 28.5284 138.325 29.0398C137.988 29.5511 137.498 29.9545 136.854 30.25C136.214 30.5455 135.439 30.6932 134.53 30.6932C133.659 30.6932 132.905 30.5549 132.268 30.2784C131.632 30.0019 131.134 29.6098 130.774 29.1023C130.414 28.5909 130.215 27.9848 130.178 27.2841H131.939C131.973 27.7045 132.109 28.0549 132.348 28.3352C132.59 28.6117 132.899 28.8182 133.274 28.9545C133.653 29.0871 134.068 29.1534 134.518 29.1534C135.015 29.1534 135.456 29.0758 135.842 28.9205C136.232 28.7614 136.539 28.5417 136.763 28.2614C136.986 27.9773 137.098 27.6458 137.098 27.267C137.098 26.9223 137 26.6402 136.803 26.4205C136.609 26.2008 136.346 26.0189 136.013 25.875C135.683 25.7311 135.31 25.6042 134.893 25.4943L133.518 25.1193C132.587 24.8655 131.848 24.4924 131.303 24C130.761 23.5076 130.49 22.8561 130.49 22.0455C130.49 21.375 130.672 20.7898 131.036 20.2898C131.399 19.7898 131.892 19.4015 132.513 19.125C133.134 18.8447 133.835 18.7045 134.615 18.7045C135.403 18.7045 136.098 18.8428 136.7 19.1193C137.306 19.3958 137.784 19.7765 138.132 20.2614C138.481 20.7424 138.662 21.2955 138.678 21.9205H136.984ZM141.961 20.375V18.8636H150.966V20.375H147.336V30.5H145.586V20.375H141.961Z" fill="#252525"/>
<rect x="159" width="50" height="50" rx="25" fill="#212A33"/>
<path d="M180 16L189 25L180 34" stroke="white" stroke-width="2" stroke-linecap="round"/>
</svg>
