<svg width="32" height="32" viewBox="0 0 32 32" fill="none" xmlns="http://www.w3.org/2000/svg">
<path d="M4 7.125C4 6.2962 4.32924 5.50134 4.91529 4.91529C5.50134 4.32924 6.2962 4 7.125 4H25.875C26.7038 4 27.4987 4.32924 28.0847 4.91529C28.6708 5.50134 29 6.2962 29 7.125V25.875C29 26.7038 28.6708 27.4987 28.0847 28.0847C27.4987 28.6708 26.7038 29 25.875 29H7.125C6.2962 29 5.50134 28.6708 4.91529 28.0847C4.32924 27.4987 4 26.7038 4 25.875V7.125Z" stroke="#808080" stroke-width="2" stroke-linecap="round" stroke-linejoin="round"/>
<path d="M10.25 11.8125H11.8125M11.8125 11.8125L16.5 16.5L21.1875 11.8125M11.8125 11.8125V21.1875M21.1875 11.8125H22.75M21.1875 11.8125V21.1875M10.25 21.1875H13.375M19.625 21.1875H22.75" stroke="#808080" stroke-width="2" stroke-linecap="round" stroke-linejoin="round"/>
</svg>
