<svg width="172" height="59" viewBox="0 0 172 59" fill="none" xmlns="http://www.w3.org/2000/svg">
<rect x="0.5" y="0.5" width="171" height="58" rx="29" stroke="black"/>
<circle cx="142.5" cy="29.5" r="29.5" fill="#212A33"/>
<path fill-rule="evenodd" clip-rule="evenodd" d="M154.386 16.2911L155.263 35.358L150.283 35.5871L149.797 25.0222L132.015 44.5194L128.331 41.1598L146.113 21.6626L135.548 22.1486L135.319 17.1682L154.386 16.2911Z" fill="white"/>
<path d="M20.6364 25.1307V23.3636H29.9205V25.1307H26.3239V35H24.233V25.1307H20.6364ZM32.9432 35.1761C32.3902 35.1761 31.892 35.0777 31.4489 34.8807C31.0095 34.6799 30.661 34.3845 30.4034 33.9943C30.1496 33.6042 30.0227 33.1231 30.0227 32.5511C30.0227 32.0587 30.1136 31.6515 30.2955 31.3295C30.4773 31.0076 30.7254 30.75 31.0398 30.5568C31.3542 30.3636 31.7083 30.2178 32.1023 30.1193C32.5 30.017 32.911 29.9432 33.3352 29.8977C33.8466 29.8447 34.2614 29.7973 34.5795 29.7557C34.8977 29.7102 35.1288 29.642 35.2727 29.5511C35.4205 29.4564 35.4943 29.3106 35.4943 29.1136V29.0795C35.4943 28.6515 35.3674 28.3201 35.1136 28.0852C34.8598 27.8504 34.4943 27.733 34.017 27.733C33.5133 27.733 33.1136 27.8428 32.8182 28.0625C32.5265 28.2822 32.3295 28.5417 32.2273 28.8409L30.3068 28.5682C30.4583 28.0379 30.7083 27.5947 31.0568 27.2386C31.4053 26.8788 31.8314 26.6098 32.3352 26.4318C32.839 26.25 33.3958 26.1591 34.0057 26.1591C34.4261 26.1591 34.8447 26.2083 35.2614 26.3068C35.678 26.4053 36.0587 26.5682 36.4034 26.7955C36.7481 27.0189 37.0246 27.3239 37.233 27.7102C37.4451 28.0966 37.5511 28.5795 37.5511 29.1591V35H35.5739V33.8011H35.5057C35.3807 34.0436 35.2045 34.2708 34.9773 34.483C34.7538 34.6913 34.4716 34.8598 34.1307 34.9886C33.7936 35.1136 33.3977 35.1761 32.9432 35.1761ZM33.4773 33.6648C33.8902 33.6648 34.2481 33.5833 34.5511 33.4205C34.8542 33.2538 35.0871 33.0341 35.25 32.7614C35.4167 32.4886 35.5 32.1913 35.5 31.8693V30.8409C35.4356 30.8939 35.3258 30.9432 35.1705 30.9886C35.0189 31.0341 34.8485 31.0739 34.6591 31.108C34.4697 31.142 34.2822 31.1723 34.0966 31.1989C33.911 31.2254 33.75 31.2481 33.6136 31.267C33.3068 31.3087 33.0322 31.3769 32.7898 31.4716C32.5473 31.5663 32.3561 31.6989 32.2159 31.8693C32.0758 32.036 32.0057 32.2519 32.0057 32.517C32.0057 32.8958 32.1439 33.1818 32.4205 33.375C32.697 33.5682 33.0492 33.6648 33.4773 33.6648ZM41.6761 23.3636V35H39.6193V23.3636H41.6761ZM45.6662 32.2614L45.6605 29.7784H45.9901L49.1264 26.2727H51.5298L47.6719 30.5682H47.2457L45.6662 32.2614ZM43.7912 35V23.3636H45.848V35H43.7912ZM49.2685 35L46.4276 31.0284L47.8139 29.5795L51.7287 35H49.2685ZM56.4489 25.1307V23.3636H65.733V25.1307H62.1364V35H60.0455V25.1307H56.4489ZM69.973 35.1705C69.1207 35.1705 68.3821 34.983 67.7571 34.608C67.1321 34.233 66.6473 33.7083 66.3026 33.0341C65.9616 32.3598 65.7912 31.572 65.7912 30.6705C65.7912 29.7689 65.9616 28.9792 66.3026 28.3011C66.6473 27.6231 67.1321 27.0966 67.7571 26.7216C68.3821 26.3466 69.1207 26.1591 69.973 26.1591C70.8253 26.1591 71.5639 26.3466 72.1889 26.7216C72.8139 27.0966 73.2969 27.6231 73.6378 28.3011C73.9825 28.9792 74.1548 29.7689 74.1548 30.6705C74.1548 31.572 73.9825 32.3598 73.6378 33.0341C73.2969 33.7083 72.8139 34.233 72.1889 34.608C71.5639 34.983 70.8253 35.1705 69.973 35.1705ZM69.9844 33.5227C70.4465 33.5227 70.8329 33.3958 71.1435 33.142C71.4541 32.8845 71.6851 32.5398 71.8366 32.108C71.992 31.6761 72.0696 31.1951 72.0696 30.6648C72.0696 30.1307 71.992 29.6477 71.8366 29.2159C71.6851 28.7803 71.4541 28.4337 71.1435 28.1761C70.8329 27.9186 70.4465 27.7898 69.9844 27.7898C69.5109 27.7898 69.117 27.9186 68.8026 28.1761C68.492 28.4337 68.259 28.7803 68.1037 29.2159C67.9522 29.6477 67.8764 30.1307 67.8764 30.6648C67.8764 31.1951 67.9522 31.6761 68.1037 32.108C68.259 32.5398 68.492 32.8845 68.8026 33.142C69.117 33.3958 69.5109 33.5227 69.9844 33.5227ZM87.2955 23.3636H89.4034V30.9659C89.4034 31.7992 89.2064 32.5322 88.8125 33.1648C88.4223 33.7973 87.8731 34.2917 87.1648 34.6477C86.4564 35 85.6288 35.1761 84.6818 35.1761C83.7311 35.1761 82.9015 35 82.1932 34.6477C81.4848 34.2917 80.9356 33.7973 80.5455 33.1648C80.1553 32.5322 79.9602 31.7992 79.9602 30.9659V23.3636H82.0682V30.7898C82.0682 31.2746 82.1742 31.7064 82.3864 32.0852C82.6023 32.464 82.9053 32.7614 83.2955 32.9773C83.6856 33.1894 84.1477 33.2955 84.6818 33.2955C85.2159 33.2955 85.678 33.1894 86.0682 32.9773C86.4621 32.7614 86.7652 32.464 86.9773 32.0852C87.1894 31.7064 87.2955 31.2746 87.2955 30.7898V23.3636ZM98.5014 28.5795L96.6264 28.7841C96.5734 28.5947 96.4806 28.4167 96.348 28.25C96.2192 28.0833 96.045 27.9489 95.8253 27.8466C95.6056 27.7443 95.3366 27.6932 95.0185 27.6932C94.5904 27.6932 94.2306 27.786 93.9389 27.9716C93.651 28.1572 93.509 28.3977 93.5128 28.6932C93.509 28.947 93.6018 29.1534 93.7912 29.3125C93.9844 29.4716 94.3026 29.6023 94.7457 29.7045L96.2344 30.0227C97.0601 30.2008 97.6738 30.483 98.0753 30.8693C98.4806 31.2557 98.6851 31.7614 98.6889 32.3864C98.6851 32.9356 98.5241 33.4205 98.206 33.8409C97.8916 34.2576 97.4541 34.5833 96.8935 34.8182C96.3329 35.053 95.6889 35.1705 94.9616 35.1705C93.8935 35.1705 93.0336 34.947 92.3821 34.5C91.7306 34.0492 91.3423 33.4223 91.2173 32.6193L93.223 32.4261C93.3139 32.8201 93.5071 33.1174 93.8026 33.3182C94.098 33.5189 94.4825 33.6193 94.956 33.6193C95.4446 33.6193 95.8366 33.5189 96.1321 33.3182C96.4313 33.1174 96.581 32.8693 96.581 32.5739C96.581 32.3239 96.4844 32.1174 96.2912 31.9545C96.1018 31.7917 95.8063 31.6667 95.4048 31.5795L93.9162 31.267C93.0791 31.0928 92.4598 30.7992 92.0582 30.3864C91.6567 29.9697 91.4579 29.4432 91.4616 28.8068C91.4579 28.2689 91.6037 27.803 91.8991 27.4091C92.1984 27.0114 92.6132 26.7045 93.1435 26.4886C93.6776 26.2689 94.2931 26.1591 94.9901 26.1591C96.0128 26.1591 96.8177 26.3769 97.4048 26.8125C97.9957 27.2481 98.3613 27.8371 98.5014 28.5795Z" fill="#252525"/>
</svg>
